<?xml version="1.0" encoding="UTF-8" standalone="no"?>
<!-- Created with Inkscape (http://www.inkscape.org/) -->

<svg
   xmlns:dc="http://purl.org/dc/elements/1.1/"
   xmlns:cc="http://creativecommons.org/ns#"
   xmlns:rdf="http://www.w3.org/1999/02/22-rdf-syntax-ns#"
   xmlns:svg="http://www.w3.org/2000/svg"
   xmlns="http://www.w3.org/2000/svg"
   xmlns:sodipodi="http://sodipodi.sourceforge.net/DTD/sodipodi-0.dtd"
   xmlns:inkscape="http://www.inkscape.org/namespaces/inkscape"
   version="1.1"
   id="svg815"
   width="900"
   height="1260"
   viewBox="0 0 900 1260"
   sodipodi:docname="logo-slicica.svg"
   inkscape:version="0.92.4 (5da689c313, 2019-01-14)">
  <metadata
     id="metadata821">
    <rdf:RDF>
      <cc:Work
         rdf:about="">
        <dc:format>image/svg+xml</dc:format>
        <dc:type
           rdf:resource="http://purl.org/dc/dcmitype/StillImage" />
        <dc:title></dc:title>
      </cc:Work>
    </rdf:RDF>
  </metadata>
  <defs
     id="defs819" />
  <sodipodi:namedview
     pagecolor="#ffffff"
     bordercolor="#666666"
     borderopacity="1"
     objecttolerance="10"
     gridtolerance="10"
     guidetolerance="10"
     inkscape:pageopacity="0"
     inkscape:pageshadow="2"
     inkscape:window-width="1920"
     inkscape:window-height="1001"
     id="namedview817"
     showgrid="false"
     inkscape:zoom="0.64126984"
     inkscape:cx="450"
     inkscape:cy="630"
     inkscape:window-x="-9"
     inkscape:window-y="-9"
     inkscape:window-maximized="1"
     inkscape:current-layer="svg815" />
  <path
     style="fill:#000000"
     d="m 409.55941,1252.9704 c -122.36894,-12.1111 -230.31097,-70.7939 -307.93827,-167.411 -9.716696,-12.0936 -30.6135,-42.9304 -38.2877,-56.5 -29.4595,-52.09043 -48.3279,-109.52576 -55.1907996,-168 -4.0923,-34.86758 -4.092,-70.24651 8e-4,-105.5 C 25.25844,608.13927 117.13424,477.02783 250.55941,409.61934 c 52.80654,-26.67869 104.13928,-41.19233 165,-46.65153 31.23478,-2.80175 74.33978,-1.14889 106.5,4.08374 114.64248,18.65292 215.62912,79.62983 286.5262,173.00785 75.51407,99.45902 105.70384,230.72418 81.43161,354.06474 -20.06591,101.96597 -76.15003,195.30856 -156.45781,260.39776 -69.71453,56.5035 -152.72647,90.4764 -240.62863,98.4783 -20.8697,1.8998 -64.03091,1.8843 -83.37137,-0.03 z m 90,-12.8484 c 70.96028,-8.49 134.16285,-31.5606 192.29144,-70.1914 46.80836,-31.1077 91.26376,-75.4887 121.40373,-121.2005 32.15219,-48.7637 53.18771,-99.85292 64.71358,-157.1707 5.90825,-29.38151 7.02991,-42.48544 7.06178,-82.5 0.0316,-39.62443 -0.69367,-48.98513 -6.0819,-78.5 C 865.06542,654.51514 830.44471,582.31242 779.86417,523.91648 769.63241,512.10377 744.23569,486.89909 733.05779,477.46403 630.46302,390.86567 497.44009,356.27958 366.55941,382.1741 262.05844,402.84945 167.38734,462.96985 102.97914,549.5594 c -45.5025,61.17311 -73.3189,131.485 -83.0788,210 -2.5519,20.52913 -2.5843,76.19089 -0.056,97 12.4539,102.51944 56.7317,192.5834 129.3101,263.0255 74.5873,72.3918 167.58814,113.9331 273.90537,122.3473 12.03473,0.9525 63.60946,-0.268 76.5,-1.8102 z m -83.46933,-37.0875 c -81.28161,-7.7478 -154.31316,-38.1104 -218.53064,-90.8533 -7.9869,-6.5598 -36.358,-34.3061 -44.0929,-43.1218 -46.6616,-53.1821 -79.3888,-121.07695 -91.8263,-190.5 -6.9992,-39.06796 -7.9497,-86.55727 -2.5019,-125 18.5866,-131.15853 101.0405,-244.38113 219.94918,-302.02598 99.80455,-48.38351 215.32324,-52.6575 318.47189,-11.78289 106.27133,42.11204 190.99341,130.54651 228.3049,238.30887 9.036,26.09761 14.93554,50.96412 18.86126,79.5 3.07831,22.37611 3.35586,75.52738 0.50913,97.5 -8.18414,63.16978 -28.48996,118.65197 -62.36273,170.3955 -38.59423,58.9559 -94.19755,107.946 -157.81256,139.0431 -40.43901,19.7679 -83.15112,32.2364 -129,37.6574 -18.51537,2.1892 -61.29201,2.6594 -79.96933,0.8791 z m 77.08392,-12.9916 c 70.22254,-8.1262 133.65737,-33.258 188.88541,-74.8333 31.25783,-23.5306 60.7766,-54.0736 84.22786,-87.1502 30.56221,-43.1062 53.04202,-96.50416 62.72696,-149 5.07164,-27.49007 6.03343,-38.99607 5.97676,-71.5 -0.0552,-31.6854 -0.90927,-42.18029 -5.53352,-68 -18.19872,-101.61337 -78.85785,-193.52375 -165.89806,-251.36778 -48.53908,-32.25747 -101.0169,-52.0939 -160.5,-60.66845 -18.84066,-2.7159 -62.09507,-3.79502 -82.7457,-2.06436 -91.09264,7.63415 -175.36957,46.76658 -239.83467,111.36279 -55.4493,55.56205 -92.4992,125.623 -106.372,201.14872 -4.7813,26.02972 -5.9776,40.16909 -5.9725,70.58908 0.01,30.51932 1.1372,43.68695 6.0183,70 17.989704,96.97847 73.663,184.134 154.7294,242.2261 50.84057,36.4323 110.56634,60.0384 172.67717,68.2491 27.93659,3.693 64.89913,4.0998 91.61459,1.0083 z m 87.60277,-64.2335 c -9.41601,-9.7625 -31.42943,-32.3269 -48.91869,-50.1431 l -31.79867,-32.393 -10,1.7426 c -5.5,0.9584 -15.85,2.2603 -23,2.893 l -13,1.1505 -0.26607,27.25 -0.26607,27.25 h -33.48393 -33.48393 v -31.4615 -31.4614 l -4.25,-1.1281 c -13.79354,-3.6614 -34.11872,-11.8458 -48.27425,-19.4387 -60.97966,-32.70913 -106.76622,-90.33069 -124.38122,-156.53163 -6.2906,-23.64143 -7.5226,-33.84253 -7.546,-62.47867 -0.02,-24.45968 0.1471,-26.88114 2.8204,-40.87325 l 2.8417,-14.87324 -7.8889,-8.12676 c -27.6084,-28.44101 -32.798,-33.54535 -33.4239,-32.87498 -2.7512,2.94683 -11.9805,38.80975 -14.8173,57.57661 -6.7173,44.43966 -5.0955,78.93298 5.5066,117.1105 11.4797,41.33774 35.1612,84.29303 61.0613,110.75777 3.6046,3.68316 6.3958,7.1078 6.2027,7.61031 -0.1931,0.50252 -10.9703,11.79964 -23.9493,25.10474 l -23.5981,24.1912 -6.9481,-8.3015 c -16.7062,-19.9604 -25.6565,-32.3828 -36.7037,-50.94238 -28.2405,-47.44475 -44.4034,-98.29041 -48.75,-153.35902 -1.439,-18.23017 -0.6273,-55.15495 1.5716,-71.5 13.335304,-99.12451 60.5809,-183.12518 137.5265,-244.51657 16.1575,-12.89135 49.45328,-34.33326 51.74042,-33.31995 0.84169,0.37291 16.97509,17.02815 48.75937,50.33652 11.54634,12.1 24.52266,25.67199 28.83628,30.15998 l 7.84293,8.15998 7.16049,-2.45994 c 48.66974,-16.7202 104.1657,-17.69119 154.82301,-2.7089 6.78561,2.0069 13.46247,3.8377 14.83747,4.06845 2.17947,0.36575 7.71255,-5.00638 43.15534,-41.90001 22.36044,-23.27576 41.79644,-43.38561 43.19112,-44.68856 l 2.53577,-2.36899 6.80889,3.77252 c 24.15753,13.38469 54.40856,36.545 76.34506,58.4501 59.42422,59.33915 95.17777,131.77339 106.62523,216.01537 1.45934,10.73928 1.83491,20.04393 1.83654,45.5 0.002,34.12801 -0.78258,43.16633 -6.12124,70.5 -21.80373,111.6339 -95.03673,207.5477 -197.51936,258.6925 -8.05346,4.0191 -15.06505,7.3075 -15.58131,7.3075 -0.51626,0 -8.64266,-7.9875 -18.05868,-17.75 z m -139.21736,-61.75 v -27.5 h 9.25 c 5.0875,-7e-4 15.325,-0.6981 22.75,-1.5499 54.96874,-6.3058 106.60804,-31.1032 144.48769,-69.38334 l 8.98769,-9.08272 -16.72506,-16.72505 -16.72505,-16.72506 -6.26264,6.09146 c -38.54645,37.49287 -92.92996,62.24645 -134.37061,61.16108 l -10.89202,-0.28647 -0.26385,-32.25 -0.26386,-32.25 h 36.90687 c 30.73093,0 36.99686,-0.23453 37.44467,-1.40151 0.2958,-0.77083 0.45644,-8.98333 0.35699,-18.25 l -0.18082,-16.84849 -37.25,-0.26217 -37.25,-0.26217 V 862.04723 835.5594 h 37.5 37.5 v -16 -16 h -58.5 -58.5 l -0.11515,87.75 c -0.0633,48.2625 -0.035,88.5375 0.0629,89.5 0.25156,2.47304 -1.46822,2.22888 -13.14054,-1.86557 C 283.96971,943.02478 235.02664,844.40514 268.68609,741.81898 c 4.63241,-14.11851 16.54113,-37.21085 25.66103,-49.75958 13.16665,-18.11696 29.54278,-34.32768 47.04537,-46.57021 l 6.33308,-4.42979 10.06371,10.5 c 11.28901,11.77843 64.05453,66.19928 81.73227,84.29635 l 11.52302,11.79635 8.02382,-8.29635 c 4.4131,-4.56299 26.85129,-28.19789 49.86265,-52.52199 l 41.83884,-44.22563 4.64477,3.15429 c 19.96028,13.55515 39.2266,32.78409 51.62928,51.52911 l 4.78515,7.23214 6.11517,-5.22802 c 17.8731,-15.28021 27.61516,-23.99741 27.61516,-24.71007 0,-1.43007 -11.41726,-16.81276 -19.19726,-25.86483 -8.66843,-10.08578 -23.43093,-23.77386 -35.66219,-33.06668 l -8.35945,-6.35119 14.49522,-14.62174 c 7.97237,-8.04196 20.10886,-20.44249 26.96998,-27.55674 l 12.47477,-12.935 11.38946,8.60702 c 52.13863,39.40116 94.11675,109.48375 108.89059,181.79312 4.6461,22.73999 5.4256,31.43476 5.42118,60.46986 -0.006,37.0423 -3.00554,58.5518 -12.13377,87 -10.40275,32.42028 -23.48823,56.76134 -48.57565,90.3584 l -9.97491,13.3584 17.37297,17.3943 c 9.55514,9.5668 17.68739,17.2806 18.07167,17.1416 2.60721,-0.9429 21.66092,-28.0614 31.69625,-45.11228 54.44551,-92.50725 63.21447,-207.61735 23.47379,-308.14042 -17.87002,-45.2018 -42.97523,-83.80458 -77.30113,-118.86134 -21.21362,-21.6653 -42.90373,-39.14749 -67.27167,-54.22089 l -9.17192,-5.67351 -4.94163,5.37787 c -8.47681,9.22512 -47.42512,49.67607 -67.54832,70.15435 -9.33802,9.50279 -14.01539,13.59187 -15.07779,13.1814 -26.42898,-10.21128 -53.63217,-15.9382 -81.39793,-17.1362 -29.14278,-1.25741 -65.78954,4.50242 -93.62617,14.71538 l -8.48391,3.11266 -3.88043,-4.32486 c -2.13423,-2.37867 -8.66647,-9.28482 -14.51609,-15.34699 -20.07164,-20.80099 -52.79445,-54.98143 -59.06818,-61.69936 l -6.27707,-6.72149 -3.1452,1.62367 c -7.15325,3.69278 -29.03168,18.93192 -41.64518,29.00752 -14.7625,11.79207 -36.2394,32.69028 -48.1082,46.81179 -45.9855,54.71359 -73.6065,118.10609 -82.567896,189.5 -2.3816,18.97374 -2.3732,63.64623 0.015,81 7.999096,58.12156 25.930696,105.44134 57.410196,151.5 8.1744,11.9602 21.0112,28.5 22.1193,28.5 0.9571,0 30.1315,-29.43894 30.1315,-30.40474 0,-0.42938 -2.4116,-3.44556 -5.3591,-6.70262 -15.2601,-16.86298 -34.3611,-48.3405 -45.2646,-74.59404 -13.85,-33.34799 -20.217,-63.21528 -21.0617,-98.7986 -2.4076,-101.42968 40.0435,-191.68455 121.59359,-258.51888 l 5.40822,-4.43231 26.8146,27.4756 c 14.74803,15.11157 26.82683,27.96181 26.84178,28.55607 0.0149,0.59426 -2.11033,2.61329 -4.72283,4.48671 -2.6125,1.87343 -9.25,7.2762 -14.75,12.00615 -44.34889,38.13965 -72.52976,87.97969 -81.66256,144.42666 -1.7023,10.52163 -1.6979,47.15089 0.01,59.5 10.1521,73.52681 54.15481,138.69832 118.50752,175.519 17.516,10.0222 35.75698,17.3478 59.64791,23.9548 l 5.5,1.521 -0.29649,27.7493 c -0.16306,15.2621 -0.042,28.7633 0.26906,30.0026 0.56424,2.2482 0.61338,2.2533 21.54648,2.2533 h 20.98095 v -27.5 z m 6,-383.46088 c -1.375,-1.53105 -14.7625,-15.25571 -29.75,-30.49925 -14.9875,-15.24353 -27.25,-28.05711 -27.25,-28.47461 0,-0.69873 15.34238,-4.28322 31,-7.24264 9.99838,-1.88978 41.41614,-1.55326 53.5,0.57305 10.52074,1.85125 32.40357,7.17456 33.33926,8.11025 0.30182,0.30182 -2.14537,3.34896 -5.43821,6.77142 -3.29283,3.42246 -10.03464,10.49766 -14.98179,15.72266 -4.94716,5.225 -12.83151,13.55 -17.52078,18.5 -4.68927,4.95 -10.70932,11.3625 -13.37789,14.25 -2.66856,2.8875 -5.33988,5.21014 -5.93626,5.16143 -0.59638,-0.0487 -2.20933,-1.34126 -3.58433,-2.87231 z M 473.8696,642.5999 c 13.60547,-14.37875 13.8298,-13.1228 -2.81019,-15.73372 -17.69803,-2.77694 -56.7056,-1.23896 -55.71166,2.19658 0.15858,0.54815 8.23104,9.25956 17.93878,19.35869 l 17.65044,18.36205 5.57159,-5.86205 c 3.06438,-3.22413 10.87684,-11.46883 17.36104,-18.32155 z m -87.32114,303.7095 -0.011,-19.25 -21.28163,-21.5 c -11.70489,-11.825 -37.84892,-38.375 -58.09783,-59 l -36.81619,-37.5 0.61094,10 c 3.31408,54.24568 36.311,105.09344 86.59285,133.43832 7.9112,4.4597 26.40286,12.99231 28.26377,13.04175 0.4125,0.011 0.74507,-8.64257 0.73905,-19.23007 z m 329.37115,-7.10166 c 17.51371,-29.8849 28.75334,-64.54136 32.80397,-101.14834 1.70108,-15.37326 1.70729,-51.92376 0.0111,-65.5 -7.24095,-57.95727 -29.57889,-111.40602 -66.03321,-158 -8.36057,-10.68603 -29.51169,-32.08899 -38.72056,-39.18159 l -6.07847,-4.68159 -18.42153,18.50021 -18.42153,18.50021 6.5,5.66639 c 12.77976,11.14078 26.33144,24.85731 34.27939,34.69637 8.57171,10.61123 19.73086,26.95439 19.70531,28.85944 -0.0128,0.9555 -50.96236,45.66183 -52.85558,46.37881 -0.34602,0.13104 -2.34114,-3.01896 -4.43362,-7 -6.18023,-11.75826 -16.4811,-25.42991 -27.69547,-36.75836 -10.09423,-10.19692 -21.76688,-19.97989 -23.83921,-19.97989 -0.78749,0 -45.02752,46.00443 -55.05144,57.24703 l -2.39065,2.6813 17.36058,17.78583 c 30.50944,31.25679 46.90853,48.14608 124.31975,128.03584 41.70228,43.0375 75.95477,78.25 76.11663,78.25 0.16186,0 1.44191,-1.95825 2.84454,-4.35166 z M 249.15037,391.65991 c -1.7584,-1.94301 -2.43074,-6.9327 -1.20203,-8.9208 0.41247,-0.66738 -1.21986,-2.08579 -4.1019,-3.56434 -8.5552,-4.38896 -8.4781,-4.26376 -6.7246,-10.92137 l 1.5292,-5.806 -3.1298,-2.92362 c -2.6326,-2.45927 -3.0243,-3.40332 -2.4663,-5.94399 0.6443,-2.93346 0.5575,-3.02039 -3.0161,-3.02039 -5.0956,0 -10.4794,-5.28174 -10.4794,-10.28072 v -3.48072 l -9.25,-0.43614 c -7.5412,-0.35557 -10.2207,-0.93531 -14.5042,-3.13823 -5.2217,-2.68539 -5.2853,-2.6919 -10.2948,-1.05337 -11.7994,3.85938 -25.4082,-2.78585 -31.9449,-15.59879 -2.6797,-5.25267 -2.7163,-14.53003 -0.071,-17.97241 1.8551,-2.41393 1.8546,-2.53118 -0.022,-6.21017 -2.1247,-4.16471 -2.5309,-12.06371 -0.8494,-16.51435 0.585,-1.54831 2.2198,-4.02717 3.633,-5.50858 2.4443,-2.56242 2.5113,-2.92366 1.3783,-7.42357 -1.7659,-7.01293 0.041,-13.44052 5.3025,-18.86111 2.2675,-2.33601 4.7289,-4.43616 5.47,-4.66701 1.0505,-0.32728 0.8648,-1.3454 -0.8432,-4.62227 -5.814,-11.15449 -1.7536,-24.11004 9.0504,-28.87675 3.7686,-1.6627 3.9654,-1.95607 3.2293,-4.81322 -0.4311,-1.67342 -0.7825,-5.10518 -0.7807,-7.62612 0.01,-9.36383 9.3905,-18.94134 18.8208,-19.20864 l 3.4724,-0.0984 0.3766,-6.66522 c 0.5026,-8.89471 3.625,-13.71972 11.3121,-17.4807 4.611,-2.25596 6.4393,-2.63258 10.465,-2.15579 l 4.8779,0.57771 1.1496,-4.792 c 2.8847,-12.02494 15.76473,-19.1527 26.50223,-14.66628 l 3.41557,1.42711 2.57889,-4.40053 c 2.81312,-4.80024 8.83708,-8.91647 14.52573,-9.92559 4.56009,-0.80892 12.51885,1.63674 15.91513,4.89058 l 2.64357,2.5327 4.89013,-2.47569 c 2.68957,-1.36164 6.41919,-2.4757 8.28804,-2.4757 2.96622,0 3.31556,-0.25945 2.74974,-2.04217 -2.02364,-6.37595 3.83424,-17.482455 11.06758,-20.984057 4.48065,-2.169047 11.10294,-2.863903 15.1077,-1.585204 1.84517,0.589157 2.26592,0.208392 2.87203,-2.599142 1.90455,-8.821868 7.36436,-14.700055 15.73267,-16.938236 4.5171,-1.208141 7.78813,-0.860631 13.73341,1.459022 1.01618,0.39648 2.48464,-0.912969 4.55269,-4.059711 5.67474,-8.63468 15.84553,-11.521117 25.37026,-7.199995 l 4.42295,2.006577 3.07705,-2.916586 c 4.65929,-4.416389 8.87626,-6.140522 15.01869,-6.140522 4.72995,0 6.17459,-0.483629 9.86962,-3.304104 2.38073,-1.817257 5.75963,-3.896852 7.50865,-4.621321 3.01597,-1.249255 3.18004,-1.594723 3.18004,-6.695895 v -5.37868 l -4.5,-0.125 c -2.475,-0.06875 -4.95,-0.237503 -5.5,-0.375003 -0.55,-0.1375 -1.9,-0.30625 -3,-0.375 -1.83121,-0.11445 -2,-0.83333 -2,-8.51801 0,-9.65771 -0.048,-9.60699 9.08179,-9.60699 h 5.91821 v -5.98094 c 0,-6.9489699 0.20357,-7.0734699 11,-6.7274099 l 6.5,0.20835 0.26372,4.4999999 c 0.50764,8.66218 0.35613,8.5 7.9407,8.5 h 6.79558 l 0.28893,8.75 c 0.32463,9.831047 1.18294,8.90023 -8.54172,9.26342 -2.33903,0.0874 -4.54164,0.44768 -4.89468,0.800719 -0.35304,0.35304 -0.8495,2.802514 -1.10324,5.443277 l -0.46135,4.801386 5.08151,2.380057 c 2.79484,1.309031 6.071,3.433301 7.28035,4.7206 1.81194,1.928722 3.21241,2.340544 7.95941,2.340544 7.22402,0 10.44841,1.203717 14.95812,5.584112 l 3.56733,3.465036 4.85334,-2.146863 c 9.04491,-4.000997 20.64978,-0.645087 25.54707,7.387737 1.07635,1.765488 2.07832,3.568582 2.2266,4.006876 0.14828,0.438294 1.93561,0.100794 3.97184,-0.75 2.03624,-0.850794 4.902,-1.546898 6.36835,-1.546898 9.01668,0 18.19367,7.021558 20.39311,15.603311 l 1.26162,4.922598 7.12171,-0.333661 c 6.53721,-0.306276 7.5157,-0.08081 11.9224,2.747173 5.65363,3.628203 9.67392,11.017993 9.68953,17.810573 0.009,3.99671 0.17847,4.25 2.84029,4.25 1.55679,0 5.02838,1.1127 7.71465,2.47266 4.77132,2.41555 4.93114,2.4298 6.91948,0.61697 9.33031,-8.50671 23.48628,-6.89257 30.82185,3.5145 2.4978,3.54365 3.60905,4.37526 5.19545,3.88806 9.11658,-2.79978 17.13248,-0.87514 22.88793,5.49546 3.0133,3.33537 5.60583,9.11155 5.62454,12.53156 0.003,0.58502 2.66807,1.01102 6.25558,1 12.10953,-0.0372 19.82835,7.10913 20.75,19.21106 l 0.5,6.56534 4,0.40493 c 4.86968,0.49296 11.68559,4.33259 14.29585,8.05332 4.0764,5.8106 4.94367,12.27699 2.66757,19.88932 -0.53319,1.78324 -0.068,2.33222 2.76997,3.26883 1.87594,0.61912 4.81804,2.57969 6.53802,4.35683 6.66298,6.88442 8.03384,16.03808 3.63958,24.30255 -1.97088,3.70671 -2.26933,4.97172 -1.25,5.29837 0.73645,0.23601 3.20595,2.2821 5.48778,4.54686 5.35385,5.31383 7.04914,10.9525 5.52513,18.37702 -0.97076,4.72923 -0.88369,5.49657 0.81656,7.19682 5.34052,5.34052 6.85524,14.5901 3.57906,21.85538 -1.89327,4.19851 -1.89398,4.33471 -0.039,7.46534 6.22389,10.50395 -3.72505,28.99639 -17.85808,33.19345 -6.34319,1.88373 -9.46459,1.88172 -15.03552,-0.01 -4.29629,-1.45863 -4.59427,-1.42134 -9.66505,1.20947 -4.31637,2.23941 -6.86514,2.78593 -14.56279,3.1226 -5.13189,0.22445 -9.29506,0.69269 -9.25148,1.04053 0.79275,6.32775 -3.54836,11.97307 -9.85762,12.81914 -3.99925,0.5363 -4.17267,0.69991 -3.62803,3.42311 0.46504,2.32516 -0.0264,3.41886 -2.62838,5.84947 l -3.20036,2.98958 1.61627,5.55977 c 0.88895,3.05787 1.34144,6.00445 1.00554,6.54794 -0.3359,0.5435 -3.25612,2.32357 -6.48937,3.95571 -5.8507,2.95342 -5.87352,2.98227 -4.79832,6.06658 0.90791,2.60443 0.76468,3.52375 -0.8974,5.76009 -3.10295,4.17503 -6.14258,3.84018 -20.07929,-2.21196 -41.94548,-18.21486 -83.93728,-29.51267 -131.20064,-35.29892 -20.01998,-2.45097 -70.6762,-2.92162 -93.11159,-0.86512 -50.86366,4.66233 -97.03123,16.52254 -143.87698,36.96124 -11.5167,5.02472 -14.8342,5.53445 -17.42047,2.67665 z m 13.51919,-4.96072 c 67.82849,-31.20822 151.3408,-45.33581 228.38985,-38.6362 53.15348,4.62182 102.58502,17.45714 150.85901,39.1718 6.97121,3.1358 8.02776,3.36641 9.35278,2.04139 1.54951,-1.54951 0.98153,-5.71678 -0.77918,-5.71678 -0.51293,0 -0.94864,-1.2375 -0.96823,-2.75 -0.0196,-1.5125 -0.68756,-5.45 -1.48438,-8.75 -0.79682,-3.3 -1.45579,-6.53017 -1.46438,-7.17815 -0.009,-0.64798 2.57188,-2.12201 5.73438,-3.27562 3.1625,-1.15361 6.65,-2.51274 7.75,-3.0203 1.1,-0.50756 2.9,-1.06313 4,-1.2346 1.1,-0.17147 2.12966,-1.21176 2.28813,-2.31177 0.24125,-1.6746 -1.66858,-2.86119 -11.73833,-7.29306 -95.22694,-41.91103 -200.99426,-53.33815 -303.13758,-32.75102 -36.26999,7.31027 -79.44336,21.34766 -108.49909,35.27742 -5.6141,2.69147 -8.1208,5.87398 -5.237,6.64891 4.1337,1.11082 9.9537,3.19392 14.49705,5.18878 l 5.17318,2.2714 -1.90604,7.33901 c -1.04833,4.03645 -1.91376,8.20357 -1.92318,9.26026 -0.009,1.05669 -0.72801,2.70676 -1.59684,3.66681 -1.24285,1.37333 -1.34197,2.18978 -0.46482,3.82874 0.61319,1.14576 1.48612,2.08319 1.93986,2.08319 0.45373,0 4.6004,-1.73709 9.21481,-3.86021 z m 4.78773,-17.42239 c -2.19396,-1.47384 -3.92249,-3.78867 -4.87851,-6.53327 -1.40105,-4.02222 -1.35693,-4.48387 0.82096,-8.58922 2.59255,-4.88701 5.47492,-6.59491 11.13,-6.59491 7.9913,0 13.7952,8.83874 10.68764,16.27618 -2.98884,7.15329 -11.38313,9.72508 -17.76009,5.44122 z m 9.54754,-0.7174 c 0.70502,0 2.46822,-1.18636 3.91822,-2.63636 5.86015,-5.86016 1.45453,-16.36364 -6.86364,-16.36364 -10.35628,0 -13.15393,15.10184 -3.5,18.89314 1.375,0.53999 3.0993,0.78494 3.83179,0.54433 0.73248,-0.24061 1.90862,-0.43747 2.61363,-0.43747 z m 347.00698,1.59424 c -4.89365,-2.13159 -6.90215,-6.24593 -6.56309,-13.44424 0.0609,-1.2925 1.64069,-3.88 3.51069,-5.75 2.77421,-2.77421 4.16377,-3.4 7.54966,-3.4 5.5343,0 9.42773,2.16818 11.4155,6.35708 2.1422,4.51437 2.0586,7.43567 -0.32468,11.34437 -3.46035,5.67518 -9.46497,7.55991 -15.58808,4.89279 z m 11.27036,-3.20357 c 4.77188,-3.00788 4.52008,-11.48129 -0.45754,-15.39669 -3.02688,-2.38095 -6.31706,-2.53566 -10.28524,-0.48363 -5.57737,2.88418 -6.67482,9.322 -2.44585,14.34785 3.59368,4.27084 8.02705,4.78599 13.18863,1.53247 z M 316.05941,351.49863 c -8.8,-0.98724 -16.5625,-1.82744 -17.25,-1.86711 -3.38641,-0.19539 0.13965,-3.45736 13.99768,-12.94929 l 15.15045,-10.37718 8.05093,0.6479 c 20.46043,1.64656 29.55094,2.94793 29.55094,4.23041 0,1.64836 -29.81838,22.42156 -31.92837,22.24315 -0.86439,-0.0731 -8.77163,-0.94064 -17.57163,-1.92788 z m 236.75,-8.48655 c -8.3875,-5.82167 -15.25,-11.14859 -15.25,-11.83759 0,-0.88611 4.90221,-1.75051 16.75,-2.95352 9.2125,-0.93543 17.77933,-1.69196 19.0374,-1.68117 2.59229,0.0222 32.14616,19.907 32.18643,21.65606 0.0285,1.23791 -3.03001,1.77591 -18.97383,3.33754 -5.775,0.56563 -12.3,1.26133 -14.5,1.54598 -3.77697,0.4887 -4.8503,-0.0726 -19.25,-10.0673 z m -169.68422,-6.52907 c -6.36091,-5.58495 -5.5728,-14.50995 1.67131,-18.92672 9.22522,-5.62467 20.55337,2.64015 17.77272,12.96667 -2.40492,8.93118 -12.52654,12.03369 -19.44403,5.96005 z m 12.45424,-0.43396 c 10.82921,-5.6 2.91119,-21.83036 -8.35377,-17.12356 -6.48328,2.70889 -7.86005,10.59396 -2.74317,15.71083 3.28695,3.28696 6.6457,3.71455 11.09694,1.41273 z m 108.37998,0.11035 c -2.95896,-2.95896 -3.4,-4.04785 -3.4,-8.39424 0,-4.10948 0.5045,-5.53431 2.84771,-8.04273 5.05455,-5.41091 12.58992,-5.44701 17.72713,-0.0849 2.43821,2.54494 2.92516,3.88742 2.92516,8.06438 0,4.50957 -0.3739,5.35383 -3.73531,8.43434 -3.1245,2.86339 -4.48994,3.42316 -8.35,3.42316 -3.91474,0 -5.13039,-0.5157 -8.01469,-3.4 z m 13.82978,-0.56611 c 4.00649,-3.1515 5.19255,-7.08736 3.4166,-11.33779 -2.97904,-7.12986 -11.1732,-8.42402 -16.11935,-2.54586 -7.21673,8.5766 3.94316,20.77395 12.70275,13.88365 z m -84.22978,-3.4154 c -9.85056,-3.7168 -16.5,-6.75746 -16.5,-7.54516 0,-0.79483 6.88871,-3.87111 17.32646,-7.73745 l 17.32645,-6.41804 16.17355,6.07712 c 18.29271,6.8734 19.58205,7.5047 18.16518,8.89435 -1.22045,1.197 -33.0924,13.14092 -34.77761,13.0328 -0.66771,-0.0428 -8.63903,-2.87947 -17.71403,-6.30362 z m 26.77153,0.008 c 4.80066,-1.85547 11.20347,-4.28955 14.22847,-5.40907 5.2324,-1.93647 5.37836,-2.08344 3,-3.02079 -14.23072,-5.60859 -24.36505,-9.19663 -25.97549,-9.19663 -1.07616,0 -3.43442,0.64131 -5.24058,1.42513 -1.80616,0.78382 -7.44643,2.9089 -12.53393,4.7224 -5.0875,1.8135 -9.25,3.59539 -9.25,3.95977 0,0.36437 2.3625,1.43424 5.25,2.37749 2.8875,0.94324 6.95679,2.53852 9.04286,3.54506 3.84027,1.85294 9.58339,3.50958 10.95714,3.16065 0.4125,-0.10478 0.75,0.2595 0.75,0.8095 0,1.39771 0.0379,1.38851 9.77153,-2.37357 z M 251.92763,372.7438 c 0.89748,-3.19859 1.63178,-6.08227 1.63178,-6.4082 0,-0.32593 -2.6674,-1.49339 -5.92756,-2.59436 -6.62731,-2.23806 -6.47661,-2.33814 -7.58231,5.03543 -0.6671,4.44846 -0.647,4.48731 3.6695,7.08883 2.38723,1.43872 4.84357,2.63342 5.45859,2.65488 0.61503,0.0215 1.85253,-2.578 2.75,-5.77658 z m 407.6434,3.11681 c 3.38118,-1.82612 4.85452,-3.20037 4.55643,-4.25 -0.24229,-0.85316 -0.97823,-3.42293 -1.63543,-5.71058 l -1.19489,-4.15938 -3.81855,1.34727 c -7.94216,2.80215 -7.81469,2.60316 -6.03745,9.42469 0.86646,3.32573 1.92583,6.04679 2.35415,6.04679 0.42833,0 3.02741,-1.21445 5.77574,-2.69879 z M 245.90497,341.69147 c 82.51609,-36.80876 176.11117,-50.6263 268.15444,-39.58793 23.64591,2.83576 52.01789,8.44858 73.5,14.54049 25.24217,7.1582 58.45049,19.25958 74.5,27.14842 11.50205,5.65362 17.97874,3.31405 18.02412,-6.51083 0.0215,-4.65042 0.24047,-5.18253 2,-4.85975 1.08674,0.19936 5.36034,0.42436 9.49691,0.5 6.67328,0.12203 8.29375,-0.24288 14.37645,-3.23738 6.71548,-3.30602 6.92497,-3.34175 10.2629,-1.75 16.99086,8.10238 40.05891,-14.62444 29.453,-29.01733 l -2.10585,-2.85776 2.49624,-4.91948 c 1.37292,-2.70571 2.49623,-6.20766 2.49623,-7.78212 0,-4.02423 -2.42444,-9.36049 -5.58256,-12.28733 -2.59137,-2.40161 -2.64035,-2.64325 -1.41959,-7.00338 2.61356,-9.33473 -0.92042,-17.35543 -9.47066,-21.49453 -2.48996,-1.20536 -4.52719,-2.40282 -4.52719,-2.661 0,-0.25819 1.4148,-2.22997 3.144,-4.38172 3.64282,-4.533 4.81372,-11.53849 2.8985,-17.34166 -1.42969,-4.33201 -7.24633,-9.38879 -11.77735,-10.23882 -4.24839,-0.797 -4.55851,-1.44361 -2.75851,-5.75161 5.17012,-12.37385 -4.40305,-26.02092 -17.03834,-24.28906 -5.20883,0.71395 -6.01303,-0.1687 -4.455,-4.88957 1.72529,-5.2277 0.35959,-11.04122 -3.63161,-15.459 -5.44951,-6.03195 -8.35748,-6.7011 -20.87063,-4.8025 -1.73128,0.26269 -2.07013,-0.44044 -2.61577,-5.42785 -0.73241,-6.6946 -3.95426,-11.62141 -9.23997,-14.12964 -4.36145,-2.06965 -10.85719,-2.10482 -14.77277,-0.08 -1.65997,0.8584 -3.41807,1.4209 -3.90687,1.25 -0.48881,-0.17091 -1.95432,-2.33574 -3.2567,-4.81074 -5.8091,-11.0395 -18.20467,-12.97664 -27.76541,-4.33909 l -3.92209,3.54337 -3.04517,-2.56235 c -2.96187,-2.49225 -5.81316,-3.34681 -12.95262,-3.88206 l -3.46632,-0.25987 -0.0337,-7.07224 c -0.0279,-5.85825 -0.46281,-7.70609 -2.53367,-10.76483 -4.50181,-6.649342 -13.97747,-9.487492 -20.43425,-6.120467 -4.1333,2.155397 -5.56575,1.241504 -5.56575,-3.5509 0,-5.167632 -3.04176,-11.173031 -7.13573,-14.088192 -4.58523,-3.264973 -12.33505,-3.72415 -17.59188,-1.04232 -4.51871,2.305273 -4.9695,2.076999 -7.25133,-3.671913 -3.77881,-9.520464 -17.51177,-12.044539 -27.21214,-5.001504 -1.44984,1.052667 -2.27967,0.559162 -5.81692,-3.459372 -4.67141,-5.306996 -9.79044,-7.275993 -16.13117,-6.204734 -3.5059,0.592318 -4.31213,0.301491 -7.73378,-2.789764 -2.10092,-1.898059 -5.91398,-4.250767 -8.47346,-5.22824 l -4.65359,-1.777224 v -8.864142 -8.864145 h 7 7 v -5.5 -5.5 h -7 -7 v -6.5499 -6.5498999 l -5.75,0.2999 -5.75,0.2998999 -0.29772,6.25 -0.29771,6.25 h -6.95229 -6.95228 v 5.5 5.5 h 7 7 v 8.866678 8.866674 l -4.81409,2.000646 c -2.64775,1.100355 -6.45422,3.440703 -8.45883,5.200772 -3.30599,2.902695 -4.05634,3.138403 -8.07322,2.536035 -5.767,-0.864815 -12.35236,1.956286 -16.13102,6.910361 -1.51812,1.99036 -3.13682,3.618837 -3.59712,3.618837 -0.4603,0 -2.49468,-1.125 -4.52086,-2.5 -8.01581,-5.439676 -20.05113,-1.993613 -24.39802,6.985866 -2.33448,4.822398 -3.84735,5.391911 -8.00684,3.014134 -3.98549,-2.278313 -10.72449,-1.851504 -15.56609,0.985866 -4.88013,2.859942 -8.43391,9.083912 -8.43391,14.770841 0,4.560577 -0.89703,5.102088 -5.36165,3.236654 -7.02365,-2.934669 -14.1123,-1.134403 -19.44402,4.938093 -3.40471,3.87775 -4.46318,7.73327 -3.99956,14.56854 l 0.30523,4.5 -6.20012,0.59327 c -4.61345,0.44144 -7.11862,1.29384 -9.78929,3.33086 l -3.58918,2.73759 -3.83,-3.46017 c -4.61049,-4.16531 -10.05693,-6.13111 -14.83745,-5.35534 -5.21977,0.84706 -10.81734,5.1935 -13.19056,10.24231 -2.32755,4.95165 -2.43,4.9919 -7.40916,2.91148 -5.02503,-2.09959 -9.49879,-1.87086 -14.66951,0.75 -5.3028,2.68784 -7.9698,6.9077 -8.8716,14.03716 -0.5634,4.45345 -0.9474,5.16888 -2.6363,4.91106 -12.3047,-1.87839 -15.5271,-1.18282 -20.4394,4.41188 -3.9556,4.50523 -5.4401,10.18089 -4.0312,15.41297 1.4003,5.20051 0.7233,6.11723 -3.964,5.36769 -5.0831,-0.81282 -9.9847,0.91944 -13.803,4.87808 -5.3148,5.51023 -6.8006,13.21328 -3.6968,19.16541 1.9663,3.7707 1.3821,5.13083 -2.5406,5.91539 -7.3707,1.47413 -13.0018,8.84128 -13.0018,17.01003 0,3.4226 0.8077,5.6396 3.5266,9.67989 1.9396,2.88229 3.2542,5.51296 2.9212,5.84592 -0.3329,0.33297 -2.4784,1.50745 -4.7677,2.60996 -7.58,3.65047 -11.0051,11.81025 -8.7124,20.7559 1.2383,4.83141 1.2136,4.94255 -1.738,7.82826 -3.3579,3.28302 -5.6132,10.45284 -4.6176,14.67966 0.3551,1.50741 1.5496,4.39102 2.6544,6.40802 l 2.0088,3.66728 -2.0685,2.62968 c -2.815,3.57862 -3.539,7.58853 -2.2407,12.41003 3.5418,13.15305 20.1149,21.86966 31.3735,16.50082 3.3379,-1.59175 3.5474,-1.55602 10.2629,1.75 6.0827,2.9945 7.7032,3.35941 14.3764,3.23738 4.1366,-0.0756 8.4211,-0.30064 9.5211,-0.5 1.7851,-0.32353 2.0014,0.18671 2.0132,4.74973 0.014,5.34364 1.4075,7.99955 4.952,9.43628 3.4178,1.38536 4.2924,1.14487 17.88033,-4.91641 z m -10.34553,-17.03158 c 0,-0.49473 1.5332,-3.17791 3.4072,-5.96261 1.8739,-2.78471 4.1603,-7.33048 5.0808,-10.10171 1.32922,-4.00203 2.22265,-5.16918 4.34274,-5.67328 1.46808,-0.34907 3.8404,-1.30636 5.27183,-2.12732 2.41478,-1.38492 2.92354,-1.30456 7.04985,1.11362 2.44599,1.43344 7.12482,3.21424 10.3974,3.95732 9.10945,2.06843 8.36929,3.67597 -3.75903,8.1642 -5.65995,2.09453 -14.30592,5.54548 -19.21327,7.66877 -8.83132,3.82108 -12.57752,4.70303 -12.57752,2.96101 z m 14.49908,-9.10193 c -0.26267,-0.42501 0.0801,-0.71106 0.76165,-0.63566 1.50864,0.1669 14.73956,-4.63942 14.73846,-5.35396 -4.4e-4,-0.27992 -2.07167,-1.46828 -4.60275,-2.6408 -4.38446,-2.03111 -4.78215,-2.05491 -8.41476,-0.50357 -2.85005,1.21715 -4.10304,2.51297 -4.96223,5.13187 -0.63219,1.92696 -1.36303,4.00707 -1.62409,4.62246 -0.30551,0.72017 0.42622,0.9467 2.05332,0.63566 1.39039,-0.26579 2.31307,-0.83099 2.0504,-1.256 z m 407.00089,6.99363 c -3.3,-1.5599 -11.75688,-4.96696 -18.79308,-7.57125 -14.74682,-5.45822 -15.77536,-6.9531 -6.26912,-9.11162 3.26579,-0.74154 7.94715,-2.47131 10.40302,-3.84392 l 4.46522,-2.49566 4.09698,1.89463 c 2.25334,1.04205 4.77626,2.11821 5.6065,2.39147 0.83024,0.27325 2.04281,2.49075 2.69461,4.92777 0.65181,2.43701 2.78502,6.75681 4.74048,9.59955 1.95547,2.84275 3.55539,5.62947 3.55539,6.19273 0,1.76736 -4.27189,0.9603 -10.5,-1.9837 z m -0.0408,-6.74219 c -0.41513,-0.9625 -1.24158,-3.19075 -1.83656,-4.95168 -0.76869,-2.27505 -2.10065,-3.59394 -4.60221,-4.55702 -3.15504,-1.21467 -4.011,-1.14184 -8.24686,0.70168 -2.59954,1.13136 -4.73704,2.31245 -4.75,2.62464 -0.013,0.31219 3.01393,1.57394 6.72643,2.80389 3.7125,1.22995 7.875,2.87107 9.25,3.64694 3.37101,1.90216 4.36221,1.82524 3.4592,-0.26845 z m -479.45917,5.72855 c -4.7419,-0.82407 -7.164,-2.26233 -10.8178,-6.42376 -10.9327,-12.45166 -3.0815,-30.79795 13.8178,-32.2886 5.9226,-0.52242 12.3725,2.7772 16.7356,8.56155 2.8383,3.76287 3.2644,5.10721 3.2644,10.29966 0,8.36448 -3.2368,14.37733 -9.4977,17.64373 -4.017,2.09574 -9.2356,2.9489 -13.5023,2.20742 z m 11.881,-4.03184 c 8.009,-4.50131 11.2935,-14.76401 7.2572,-22.67584 -5.6288,-11.03332 -18.5333,-13.11109 -27.2559,-4.38852 -8.0588,8.05885 -7.0635,19.35185 2.3036,26.13737 5.1317,3.71741 12.0823,4.08154 17.6951,0.92699 z m 529.11897,4.02546 c -15.88863,-2.79016 -21.58901,-23.22374 -9.45167,-33.88046 12.59102,-11.05507 32.34622,-2.01342 32.42971,14.84257 0.0593,11.97476 -11.00362,21.14068 -22.97804,19.03789 z m 10.28212,-3.34329 c 4.09404,-1.74445 7.1828,-5.10401 9.25725,-10.06887 4.33121,-10.36604 -4.24064,-22.63038 -15.94056,-22.80726 -14.6505,-0.22148 -22.87893,17.025 -13.31808,27.9142 5.32056,6.05979 12.97076,7.95764 20.00139,4.96193 z m -523.53209,2.68179 c -2.9168,-0.76221 -1.9019,-3.65309 2.3036,-6.56237 6.0441,-4.18105 8.1679,-8.19751 7.5945,-14.36234 -0.879,-9.45236 -5.7147,-17.57073 -13.0361,-21.88596 -1.5371,-0.90597 -1.5924,-1.94033 -0.5875,-11 2.773,-25.0002 9.2607,-44.77987 19.7802,-60.30593 3.8673,-5.70787 14.3341,-16.41704 21.1851,-21.67579 11.4166,-8.76314 32.4434,-20.9866 34.21631,-19.89088 0.43662,0.26985 0.80374,1.92658 0.81582,3.68162 0.0256,3.72274 2.93252,10.58807 5.31956,12.56342 2.67797,2.21611 1.93909,3.90841 -2.59152,5.93559 -5.03385,2.25233 -7.10408,4.40181 -9.29896,9.65491 -3.16005,7.56306 0.32765,16.62715 8.09171,21.02935 2.74967,1.55905 3.86516,2.81805 3.65547,4.12573 -0.16598,1.03509 -0.55964,4.00817 -0.87481,6.60685 -0.48852,4.02798 -1.06951,5.01779 -3.93916,6.71092 -1.85137,1.09234 -4.29416,3.46615 -5.42843,5.27514 -4.33843,6.91916 -0.68368,23.11656 6.37138,28.2371 2.3339,1.69394 4.34045,2.05219 11.5,2.05321 l 8.6728,0.001 0.3388,2.98068 c 1.22672,10.79228 -8.49316,20.44454 -20.63846,20.49487 -8.08363,0.0337 -17.20034,-5.64542 -17.20034,-10.71454 0,-3.33436 -2.40632,-7.58592 -6.00955,-10.61783 -11.52512,-9.69777 -28.76982,-0.89687 -27.69752,14.13555 0.241,3.37737 1.1572,6.33661 2.5419,8.20951 2.5642,3.46828 2.7066,6.22348 0.6263,12.11962 -3.602,10.20911 -14.9208,16.02039 -25.7111,13.20057 z m 15.8033,-6.93757 c 5.3217,-3.48693 8.014,-12.69042 4.9796,-17.02266 -0.8069,-1.15201 -1.9469,-4.23546 -2.5333,-6.85211 -2.9017,-12.94799 7.4347,-25.49833 21.00037,-25.49833 9.38544,0 19.37193,7.22006 20.59881,14.89259 2.09008,13.07061 21.47549,14.53335 27.90224,2.10538 2.44962,-4.73704 2.01038,-6.35026 -1.5359,-5.641 -4.86589,0.97318 -12.73211,-1.21346 -16.60821,-4.61672 -7.60232,-6.67493 -11.31698,-20.31943 -7.93955,-29.16311 0.93471,-2.44749 3.40176,-5.98791 5.48235,-7.86759 2.48301,-2.24325 4.15089,-4.86745 4.85385,-7.63691 0.89091,-3.5099 0.83554,-4.12895 -0.32931,-3.68196 -0.77016,0.29554 -1.32631,0.21604 -1.23589,-0.17667 0.0904,-0.3927 -1.93998,-2.91399 -4.512,-5.60285 -2.57201,-2.68886 -4.67639,-5.6998 -4.67639,-6.69098 0,-0.99118 -0.39018,-2.04329 -0.86707,-2.33802 -0.47689,-0.29474 -6.66439,1.07615 -13.75,3.04642 -13.4735,3.74651 -28.6665,10.50907 -34.0328,15.14831 -4.7123,4.07386 -8.6101,17.32186 -11.4965,39.07499 -1.1724,8.83594 -1.1367,9.41019 0.6476,10.40875 3.4424,1.92646 6.7439,6.1633 9.7356,12.49367 4.8962,10.36036 4.0044,20.00445 -2.4463,26.45513 l -2.103,2.10307 3.1519,-0.63039 c 1.7336,-0.34672 4.3049,-1.38577 5.7139,-2.30901 z m 28.44667,-104.91866 c 7.425,-2.01482 14.02465,-3.81266 14.66589,-3.99521 0.64123,-0.18255 1.69237,-2.86797 2.33585,-5.96761 0.91474,-4.4063 2.07836,-6.5717 5.33411,-9.92639 2.29028,-2.35987 4.83915,-4.51367 5.66415,-4.78621 1.3029,-0.43043 1.26728,-0.94121 -0.27108,-3.88728 -0.9741,-1.86546 -2.14217,-4.74174 -2.59572,-6.39174 -0.49528,-1.80178 -1.44863,-2.95065 -2.38693,-2.87644 -2.72289,0.21534 -19.92536,11.0349 -28.60234,17.98957 -4.5959,3.6836 -10.8172,9.66507 -13.8251,13.29216 -5.2658,6.34966 -12.3188,17.26947 -12.3188,19.07259 0,0.47891 4.1625,-1.31871 9.25,-3.99471 6.2673,-3.29659 13.603,-6.04666 22.74997,-8.52873 z m 433.42926,110.65275 c -5.4914,-2.49414 -10.11467,-8.34237 -11.50447,-14.55265 -1.04865,-4.68585 -0.94016,-5.41981 1.47155,-9.95561 4.32275,-8.12997 3.05493,-16.51709 -3.30583,-21.86932 -9.80701,-8.25205 -25.51069,-3.1163 -27.67183,9.04983 -1.97572,11.12227 -19.0356,16.09455 -29.62797,8.63538 -5.21995,-3.67591 -8.87288,-10.48522 -8.53766,-15.91482 l 0.24695,-4 h 8.67075 c 10.49729,0 12.96888,-1.39204 17.13372,-9.65001 3.96778,-7.86725 4.0811,-16.34463 0.28501,-21.32156 -1.48108,-1.94179 -3.97541,-4.19376 -5.54297,-5.00438 -2.40757,-1.245 -2.91544,-2.21527 -3.27093,-6.24895 -0.23146,-2.6263 -0.74368,-5.48413 -1.13828,-6.35071 -0.53297,-1.1705 0.58929,-2.38793 4.36475,-4.73488 10.37654,-6.45042 11.93164,-19.23183 3.32986,-27.36819 -1.55755,-1.47327 -4.10575,-2.99367 -5.66267,-3.37868 -3.92437,-0.97043 -4.38504,-3.08399 -1.36276,-6.25234 3.10845,-3.25867 4.69352,-7.1925 4.69352,-11.64841 0,-1.83035 0.59201,-3.55509 1.31558,-3.83275 0.72357,-0.27766 6.23607,2.27664 12.25,5.67622 16.64866,9.41124 27.29394,17.67396 36.70066,28.48659 14.61045,16.79409 22.19411,36.63533 25.83439,67.5909 1.08155,9.19705 1.03554,10.04257 -0.59848,11 -6.93974,4.06623 -12.17148,12.57862 -13.11403,21.3374 -0.64657,6.00829 1.63302,10.59163 7.30078,14.67893 2.30389,1.66145 4.21639,3.75584 4.25,4.65419 0.12259,3.27718 -10.10946,3.88071 -16.50964,0.97382 z m 6.57074,-4.10719 c 0,-0.55 -0.472,-1 -1.04889,-1 -1.97784,0 -4.90723,-8.36044 -4.90541,-14 0.003,-8.86482 5.79184,-20.77493 11.7043,-24.08015 2.80484,-1.56798 2.86058,-4.56746 0.35162,-18.91985 -3.25319,-18.60969 -5.98003,-27.07985 -9.87243,-30.66588 -6.74606,-6.21508 -19.23342,-11.72346 -37.22919,-16.42238 l -10.5,-2.74169 -2.20456,4.28784 c -2.02371,3.9361 -6.72138,8.85076 -9.27297,9.70129 -0.65917,0.21972 -0.81409,2.08198 -0.41526,4.99179 0.47522,3.46709 1.23027,4.95928 2.98444,5.89808 1.29155,0.69122 3.59929,3.06373 5.12831,5.27226 2.44516,3.53181 2.78004,4.93285 2.78004,11.63098 0,16.55881 -8.20428,26.31967 -22.25,26.47145 -6.84706,0.074 -7.31278,0.6204 -4.75105,5.57423 2.20413,4.26231 7.56699,7.91552 12.59193,8.57768 5.84845,0.77068 13.0088,-2.82694 14.24019,-7.15478 3.17795,-11.16926 10.31597,-17.50224 20.49636,-18.18475 4.7191,-0.31638 6.59686,0.094 11.17153,2.44179 11.16032,5.72752 14.83086,17.8947 8.90346,29.51336 -2.47641,4.85416 -1.91429,10.12336 1.50439,14.10192 3.59522,4.18402 10.59319,7.29339 10.59319,4.70681 z m -4.61885,-96.25 c -5.85743,-11.39774 -16.5015,-23.65297 -28.17232,-32.43668 -7.10161,-5.34483 -24.83114,-16.31332 -26.36894,-16.31332 -0.41954,0 -1.21899,1.6875 -1.77655,3.75 -0.55757,2.0625 -1.77169,4.82855 -2.69806,6.14678 -1.83089,2.60537 -2.04702,2.23419 3.74686,6.43449 3.09827,2.24611 6.78977,8.83179 7.46154,13.31149 0.37249,2.48397 1.1833,4.65147 1.80179,4.81667 27.62361,7.37839 33.02889,9.27784 41.44658,14.56458 5.96859,3.74858 6.60665,3.71023 4.5591,-0.27401 z m -384.65658,82.64124 c -1.18033,-1.18033 -0.88224,-1.85804 2.40201,-5.46113 4.93208,-5.41089 8.23928,-13.46419 8.6979,-21.18011 0.45126,-7.59197 2.04325,-8.84024 4.70641,-3.69026 3.77207,7.29438 12.13232,14.10672 20.71911,16.88294 4.40457,1.42406 4.90391,3.75063 1,4.65931 -3.86098,0.89869 -32.32077,8.19775 -34.77543,8.91883 -1.11398,0.32724 -2.35148,0.26893 -2.75,-0.12958 z m 19.70953,-9.0381 c 4.16124,-0.96811 7.5659,-2.08797 7.5659,-2.48858 0,-0.4006 -1.4625,-1.72278 -3.25,-2.93818 -1.7875,-1.21539 -4.43301,-3.58132 -5.87892,-5.25761 l -2.62892,-3.04781 -0.74429,3.43952 c -0.40936,1.89174 -1.85354,5.6404 -3.2093,8.33036 -1.85022,3.67105 -2.08533,4.74515 -0.94269,4.30667 0.83727,-0.32129 4.92697,-1.37625 9.08822,-2.34437 z m 279.39375,9.14137 c -0.27802,-0.27802 -8.13778,-2.44569 -17.46614,-4.81705 -22.44736,-5.70633 -22.9881,-6.08723 -13.53478,-9.53408 7.7157,-2.81329 12.24542,-6.42474 16.79883,-13.39338 2.06643,-3.1625 4.28552,-5.75 4.93132,-5.75 0.73552,0 1.35505,2.52775 1.6583,6.76611 0.57804,8.07885 3.22426,14.501 8.28173,20.09901 2.24022,2.47965 3.49214,4.7205 3.14406,5.6276 -0.55878,1.45615 -2.77638,2.03874 -3.81332,1.00179 z m -5.82785,-7.09014 c 0,-0.3276 -0.82692,-1.7901 -1.8376,-3.25 -1.01068,-1.4599 -2.42914,-4.82753 -3.15214,-7.48361 l -1.31455,-4.82923 -2.59786,2.97938 c -1.42882,1.63866 -4.2688,4.09547 -6.31107,5.45957 l -3.71321,2.4802 4.71321,1.22113 c 2.59227,0.67162 6.51322,1.81495 8.71322,2.54072 4.70778,1.55307 5.5,1.68009 5.5,0.88184 z m -231,-8.33913 c 0,-0.6669 2.46639,-3.46669 5.48087,-6.22175 3.01447,-2.75506 6.72697,-7.33441 8.25,-10.17634 2.58744,-4.82812 3.04337,-5.1871 6.94871,-5.47121 3.8235,-0.27815 4.52617,0.072 8.2479,4.10956 2.23758,2.42749 6.76927,5.8532 10.07043,7.6127 7.1679,3.82045 7.68691,5.74546 1.75209,6.49855 -40.09043,5.08716 -40.75,5.14621 -40.75,3.64849 z m 17.04253,-5.4664 c 2.45161,-0.29676 7.26717,-0.83976 10.70125,-1.20666 l 6.24379,-0.6671 -3.48472,-2.61254 c -1.9166,-1.4369 -4.18932,-3.62504 -5.05049,-4.86254 -0.86117,-1.2375 -2.59799,-2.25 -3.85959,-2.25 -2.18976,0 -2.74127,0.65858 -9.95456,11.88717 -0.53348,0.83045 -0.5223,1.15923 0.0279,0.81921 0.50544,-0.31238 2.92484,-0.81077 5.37645,-1.10754 z m 152.86301,5.97337 c -0.34212,-0.34213 -33.89665,-4.57221 -36.2684,-4.57221 -0.35043,0 -0.63714,-0.66742 -0.63714,-1.48315 0,-0.81574 2.3253,-2.66148 5.16733,-4.10164 2.84203,-1.44017 7.49801,-4.82275 10.34662,-7.51685 4.12994,-3.90592 5.86884,-4.89526 8.58267,-4.88305 4.3375,0.0195 4.89077,0.46676 7.8521,6.34734 1.3468,2.67445 4.82862,6.94945 7.73738,9.5 6.36813,5.58388 6.69038,7.13735 1.48057,7.13735 -2.10834,0 -4.02584,-0.1925 -4.26113,-0.42779 z m -5.31968,-8.65254 c -1.46216,-1.73768 -3.29912,-4.39829 -4.08212,-5.91245 -1.62989,-3.15184 -5.33509,-4.6103 -6.17197,-2.42943 -0.30023,0.78241 -2.74967,3.17724 -5.44319,5.32185 l -4.89732,3.8993 8.25437,0.86683 c 4.5399,0.47676 9.77185,0.98979 11.62655,1.14008 l 3.37217,0.27326 z m -96.15391,2.17895 c -1.29825,-1.29825 0.0862,-3.12176 4.41136,-5.81044 6.28057,-3.90421 10.05873,-8.96383 12.81956,-17.16763 1.22541,-3.6413 2.79528,-6.62055 3.4886,-6.62055 0.69332,0 1.79266,1.83775 2.44298,4.08389 2.66427,9.20217 6.95207,15.25687 14.22174,20.0822 3.96631,2.63269 5.06783,3.84989 4.2364,4.68132 -1.0763,1.0763 -40.5825,1.78935 -41.62064,0.75121 z m 28.49236,-6.83995 c -1.33337,-1.50774 -2.70542,-2.97024 -3.04899,-3.25 -0.34357,-0.27977 -1.53365,-2.21352 -2.64461,-4.29723 l -2.01993,-3.78855 -2.30821,3.73475 c -1.26951,2.05412 -3.61356,5.22147 -5.20898,7.03856 l -2.90077,3.3038 h 10.2779 10.27791 z m -121.94486,2.41011 c -5.84589,-2.71074 -10.95751,-8.15366 -10.97286,-11.68406 -0.004,-0.91552 1.95338,-2.2114 4.94521,-3.27401 9.9916,-3.5487 13.67133,-8.90208 12.79115,-18.60892 -1.09756,-12.10407 -6.58951,-18.99628 -15.84558,-19.88567 -4.23357,-0.4068 -5.10075,-0.89565 -6.85103,-3.86214 -1.10215,-1.86802 -3.58846,-4.33131 -5.52513,-5.47397 -4.15079,-2.44902 -4.1848,-2.80953 -1.5056,-15.9566 10.08302,-49.47826 45.54334,-85.32559 91.98439,-92.98834 8.23293,-1.35843 28.41354,-1.85379 29.54281,-0.72518 0.39067,0.39044 0.92239,2.64044 1.18161,5 0.25921,2.35956 0.87726,4.71761 1.37344,5.24011 1.31765,1.38755 1.13181,19.92033 -0.21324,21.26538 -1.44339,1.44339 -1.44339,10.37204 0,13.06902 1.57809,2.94869 1.35875,17.93381 -0.33358,22.7895 -2.10872,6.05041 -0.67799,11.03293 4.49727,15.66179 4.817,4.30843 4.68874,6.21585 -0.48322,7.18612 -4.61876,0.86649 -10.05818,6.27487 -11.21024,11.14628 -0.74763,3.16129 -1.49764,3.95319 -4.84001,5.11035 -4.99931,1.7308 -9.14474,5.67012 -10.59681,10.06994 -1.78593,5.41142 -0.79504,17.59911 1.70337,20.95089 3.05661,4.10064 7.7969,6.50121 14.21219,7.19731 l 5.66641,0.61484 -0.11885,3.79832 c -0.3491,11.15634 -17.23622,19.41518 -28.17099,13.77734 -8.15491,-4.20458 -11.14003,-9.06111 -11.01443,-17.91949 0.10979,-7.74298 -3.17608,-13.34759 -9.51187,-16.22413 -5.51647,-2.50456 -9.30566,-2.42562 -14.7139,0.30654 -8.12177,4.10299 -11.59764,12.48889 -8.63454,20.83169 1.4734,4.14845 1.49215,5.13594 0.18135,9.54987 -1.55628,5.24057 -5.73894,9.99723 -11.21711,12.75649 -3.69508,1.86114 -12.58228,2.01401 -16.32021,0.28073 z m 16.52055,-5.56616 c 1.65,-0.9195 4.10166,-3.74183 5.44813,-6.27185 2.26637,-4.25849 2.34972,-4.89823 1.12265,-8.61632 -0.78155,-2.36809 -1.1443,-6.52132 -0.88395,-10.12055 1.60771,-22.22645 32.58719,-26.63836 41.26012,-5.87602 0.85418,2.04484 1.55305,6.37165 1.55305,9.61514 0,4.46618 0.50676,6.54151 2.0883,8.5521 6.30106,8.0105 19.85322,7.66643 25.67436,-0.65183 2.55304,-3.64824 2.74621,-3.44994 -5.52924,-5.67588 -5.34418,-1.43748 -10.48703,-5.88412 -13.1373,-11.35886 -1.63256,-3.37241 -1.98433,-5.80906 -1.76212,-12.20605 0.41069,-11.82316 4.46132,-18.48101 13.15683,-21.62535 2.52115,-0.91166 3.60036,-2.11342 4.58957,-5.11077 1.27127,-3.85199 7.10973,-9.75638 9.64744,-9.75638 1.8255,0 1.61027,-0.69015 -1.47784,-4.73888 -2.40941,-3.1589 -2.75,-4.49395 -2.75,-10.77958 0,-4.69781 0.48588,-7.75959 1.40762,-8.87023 0.91533,-1.1029 1.06628,-2.03741 0.43162,-2.67207 -0.5368,-0.5368 -7.46877,-1.45842 -15.40438,-2.04804 -30.10873,-2.23713 -63.4681,3.23746 -87.07257,14.28943 l -8.63772,4.04431 -2.11855,7.13753 c -1.1652,3.92564 -2.61454,9.95416 -3.22075,13.39671 l -1.1022,6.25918 4.10846,4.10847 c 2.25966,2.25965 4.10847,4.48513 4.10847,4.9455 0,0.46038 1.6875,1.11648 3.75,1.45801 5.87128,0.97222 8.74379,2.35088 12.05675,5.7866 6.20586,6.43584 9.67345,19.66168 7.15724,27.29871 -1.92117,5.83099 -4.70957,9.00657 -10.62035,12.09498 -2.93615,1.53415 -5.17088,3.23937 -4.96605,3.78937 0.20483,0.55 0.91211,0.87635 1.57174,0.72522 0.65963,-0.15112 0.92828,0.1638 0.59699,0.69983 -0.63964,1.03497 2.16765,2.84542 6.39528,4.12438 3.32215,1.00502 8.7796,0.15901 12.5584,-1.94681 z m -6.63937,-102.71724 c 21.31432,-6.90391 48.02645,-10.04212 71.13937,-8.35764 19.31968,1.40802 18,1.62105 18,-2.90562 0,-2.13283 -0.675,-5.49337 -1.5,-7.46788 -1.94046,-4.64418 -1.90698,-10.59662 0.0876,-15.58168 1.84818,-4.61905 1.48917,-13.73298 -0.84977,-21.57256 l -1.49176,-5 -11.77897,0.25697 c -27.32139,0.59606 -50.77625,10.53917 -70.06679,29.7031 -9.35839,9.29697 -16.75717,19.35488 -22.26085,30.26141 -4.59138,9.09865 -4.31935,9.79023 2.6105,6.63655 3.1625,-1.43921 10.41229,-4.1269 16.11063,-5.97265 z m 202.14651,108.02164 c -4.54331,-1.97024 -7.7462,-5.01867 -10.10446,-9.61718 -2.18556,-4.26177 -2.38344,-7.96364 -0.75177,-14.06428 1.6121,-6.02744 0.39024,-11.12082 -3.77338,-15.72944 -6.05073,-6.69743 -14.6512,-7.72786 -22.29275,-2.67092 -5.03153,3.32971 -7.08478,7.94521 -7.08478,15.92589 0,5.5231 -0.41465,7.02124 -2.88855,10.43636 -8.74967,12.07857 -28.1465,10.57707 -34.89013,-2.70083 -3.48753,-6.86677 -2.83697,-8.36669 3.94509,-9.09575 6.42283,-0.69045 11.15367,-3.08876 14.22906,-7.21345 1.65407,-2.21843 2.17944,-4.61272 2.45452,-11.18595 0.30338,-7.24988 0.0459,-8.90443 -1.9341,-12.42733 -2.0975,-3.732 -8.35818,-8.06414 -11.65406,-8.06414 -0.6087,0 -1.65409,-1.6875 -2.32308,-3.75 -2.29843,-7.08598 -5.41211,-9.85844 -14.18875,-12.63384 -2.7625,-0.87357 -2.05075,-3.24116 1.62661,-5.41086 4.90582,-2.8945 7.34219,-9.60889 5.59997,-15.43293 -2.18018,-7.2881 -2.37957,-19.54245 -0.41215,-25.33051 1.6413,-4.82864 1.6414,-5.37929 0.002,-10.59206 -1.93535,-6.15299 -1.71457,-17.08807 0.54564,-27.02498 l 1.29085,-5.67518 5.60852,-0.65093 c 6.73478,-0.78166 22.47948,0.84187 33.48878,3.45322 41.40906,9.82205 73.58358,45.60523 82.95209,92.25591 2.22429,11.07589 2.08285,12.46417 -1.45636,14.29437 -1.65234,0.85446 -4.18714,3.34101 -5.63288,5.52568 -2.2089,3.33786 -3.17263,3.97211 -6.03557,3.97211 -1.87383,0 -5.22697,0.9285 -7.45144,2.06334 -7.53299,3.84305 -12.1976,19.24166 -8.31029,27.43356 1.9079,4.02059 8.53436,8.92686 13.54229,10.02679 3.5908,0.78867 3.70464,2.81638 0.42877,7.63725 -4.72543,6.95409 -16.17425,9.86937 -24.52947,6.24608 z m 13.39678,-3.88599 c 2.14715,-0.76515 4.87193,-2.4229 6.05505,-3.68388 l 2.15115,-2.29271 -4.56234,-2.11376 c -7.72739,-3.58015 -13.0238,-11.42712 -13.0422,-19.32287 -0.0109,-4.68158 3.98998,-15.66696 7.05776,-19.37867 3.53989,-4.28293 6.75003,-6.15626 12.2601,-7.15458 2.73475,-0.49549 5.11016,-2.02845 8.34232,-5.38365 l 4.51886,-4.69091 -1.13401,-7 c -0.62371,-3.85 -2.03342,-10.03453 -3.1327,-13.7434 -1.90204,-6.41739 -2.22636,-6.85007 -6.70829,-8.94967 -2.59029,-1.21344 -4.93462,-2.25625 -5.20962,-2.31735 -0.275,-0.0611 -2.075,-0.79612 -4,-1.63336 -1.925,-0.83725 -5.525,-2.21546 -8,-3.06269 -15.31911,-5.24397 -30.30504,-7.93763 -52,-9.34679 -10.43966,-0.67808 -35.71665,1.00081 -37.27927,2.47609 -0.4286,0.40464 -0.0939,2.05004 0.74384,3.65644 2.14232,4.10814 1.93322,11.72067 -0.45028,16.39272 -1.09214,2.14077 -2.45879,4.18469 -3.037,4.54205 -0.59749,0.36926 0.60021,1.84607 2.77462,3.4212 4.2266,3.06174 6.82407,6.52714 7.79652,10.40171 0.45042,1.79462 1.53594,2.74231 3.68074,3.21338 4.20046,0.92258 11.04265,8.05103 12.54099,13.06569 0.67641,2.26381 1.21996,6.98881 1.20788,10.5 -0.04,11.63265 -5.65957,19.40873 -16.15414,22.35335 -3.20314,0.89876 -5.8239,2.06743 -5.8239,2.59705 0,2.27999 6.69842,8.08384 10.25,8.88113 10.07868,2.26254 20.21203,-5.08394 19.04226,-13.80526 -0.7482,-5.57822 1.26974,-11.36312 5.73222,-16.43276 4.58949,-5.21394 8.86739,-6.99154 16.65712,-6.92154 6.00596,0.054 12.6413,3.26446 16.26314,7.86889 2.65471,3.37492 5.38075,12.63331 4.5895,15.58725 -0.33234,1.24073 -1.0976,3.90421 -1.70058,5.91884 -0.93863,3.13607 -0.78269,4.31087 1.08411,8.16717 2.35485,4.86448 4.90573,6.99414 10.20185,8.51729 4.497,1.29333 4.76553,1.28389 9.2843,-0.3264 z m 15.59608,-96.11218 c 0,-0.32514 -2.10882,-4.67421 -4.68626,-9.66461 -14.45977,-27.99679 -38.90397,-48.37268 -66.81374,-55.69377 -9.3088,-2.44182 -24.83069,-4.31749 -31.98802,-3.86546 -4.85715,0.30677 -5.00225,0.40726 -5.55714,3.84896 -0.31338,1.94368 -0.93011,4.117 -1.37053,4.82961 -1.2734,2.06041 -0.71029,15.99894 0.82958,20.53453 1.0553,3.10831 1.15907,5.2452 0.41849,8.61756 -0.54162,2.46638 -1.30455,7.07183 -1.6954,10.23433 -0.83166,6.72922 -2.68982,6.20276 16.86302,4.77774 29.08942,-2.12005 64.81694,3.72793 87.10707,14.25791 5.73634,2.70988 6.89293,3.06614 6.89293,2.1232 z m -407.08757,92.31113 c -6.0553,-4.0807 -7.5727,-10.48466 -3.9082,-16.49491 2.2962,-3.76613 5.4214,-5.22507 11.1928,-5.22507 3.3678,0 4.6457,0.61381 7.4349,3.5712 5.8291,6.18062 4.1379,14.91085 -3.6706,18.94878 -4.0084,2.07284 -7.1202,1.84752 -11.0489,-0.8 z m 11.1574,-1.98809 c 8.2963,-5.59086 4.5692,-17.73189 -5.4434,-17.73189 -3.32,0 -8.3293,4.3707 -9.1163,7.95404 -0.8677,3.95042 1.8193,8.84897 5.8046,10.5823 4.2948,1.86794 4.8677,1.8153 8.7551,-0.80445 z m 538.34861,3.35043 c -1.14486,-0.49129 -3.28236,-2.32032 -4.75,-4.06451 -3.26833,-3.88419 -3.51995,-9.10894 -0.66424,-13.79274 2.29621,-3.76613 5.42147,-5.22507 11.19282,-5.22507 3.36783,0 4.64572,0.61381 7.4349,3.5712 2.78299,2.95083 3.36808,4.34311 3.36808,8.01469 0,3.6192 -0.603,5.10146 -3.2506,7.9905 -3.47354,3.79029 -9.17448,5.28959 -13.33096,3.50593 z m 10.51851,-3.97558 c 4.94296,-3.50585 5.11708,-10.29863 0.37658,-14.69197 -3.96124,-3.67116 -8.65754,-3.27076 -13.04007,1.11177 -3.08601,3.08601 -3.45431,3.97157 -2.94839,7.08923 0.70025,4.31514 2.21502,6.2753 6.17454,7.9901 3.35186,1.45163 5.83262,1.05756 9.43734,-1.49913 z m -428.43695,-3.1318 c -15.74288,-3.36035 -21.5809,-21.65875 -10.45863,-32.78102 8.89307,-8.89306 23.09356,-7.74457 29.82087,2.41181 3.63817,5.49264 4.55318,10.1378 3.0769,15.62029 -2.79233,10.36991 -12.63761,16.84107 -22.43914,14.74892 z m 11.19841,-4.07099 c 10.71206,-5.18562 12.55187,-20.4669 3.3921,-28.17434 -6.79014,-5.71352 -15.76237,-5.59065 -22.48041,0.30787 -4.48145,3.93476 -5.95234,7.82204 -5.41437,14.3092 0.54916,6.62217 3.62285,11.21262 9.20534,13.74789 5.37393,2.44054 9.98067,2.38314 15.29734,-0.19062 z m 272.04402,1.14766 c -5.79759,-3.67672 -8.74243,-9.08102 -8.74243,-16.04389 0,-8.83821 3.53768,-14.40807 11.5,-18.10605 14.70894,-6.83136 31.25597,7.61866 26.58336,23.21444 -1.4605,4.87472 -6.51559,10.74872 -10.78562,12.53285 -5.73158,2.3948 -13.28576,1.7445 -18.55531,-1.59735 z m 17.00309,-0.58975 c 7.1031,-2.96786 10.48525,-7.95528 10.48525,-15.46186 0,-8.24408 -5.14382,-14.98527 -12.93052,-16.94598 -7.95008,-2.00185 -15.51144,1.5193 -19.32815,9.00067 -7.24055,14.19265 7.05236,29.55802 21.77342,23.40717 z M 445.02792,243.54997 c -3.56935,-1.10032 -8.95305,-6.1076 -11.21382,-10.42978 -2.25475,-4.31066 -2.03785,-12.20162 0.46894,-17.06079 3.65437,-7.08364 9.3642,-10.50873 17.47671,-10.48355 6.71326,0.0208 12.14117,2.96934 16.25807,8.83157 5.8103,8.27353 3.39877,20.44792 -5.26241,26.5668 -4.52329,3.19557 -12.13105,4.30095 -17.72749,2.57575 z m 11.03149,-2.08932 c 7.34717,-1.99768 12.66667,-8.8805 12.66667,-16.38923 0,-14.62156 -16.9721,-22.76784 -27.73913,-13.31425 -4.56277,4.00616 -6.42754,7.71528 -6.42754,12.78469 0,7.85448 4.27442,13.92729 11.65519,16.55889 4.74414,1.69152 4.92324,1.69807 9.84481,0.3599 z m -276.73747,-6.46664 c -7.6338,-4.1421 -7.5087,-16.9289 0.2047,-20.91768 5.9177,-3.06012 12.49,-1.40523 16.0864,4.0505 6.7958,10.309 -5.299,22.83143 -16.2911,16.86718 z m 11.0124,-2.43881 c 8.1629,-4.97692 5.5799,-16.09029 -4.105,-17.66194 -3.1996,-0.51921 -4.0383,-0.16546 -7.2699,3.06614 -3.2254,3.22536 -3.5848,4.07428 -3.0693,7.25056 0.6312,3.88964 2.9899,7.1028 6.1693,8.40408 3.1495,1.28908 4.7625,1.08269 8.2749,-1.05884 z m 519.67572,0.7542 c -8.70896,-8.04099 -3.49221,-20.75 8.51738,-20.75 3.47949,0 4.83652,0.60455 7.63197,3.4 2.88864,2.88864 3.4,4.09713 3.4,8.03518 0,7.67429 -4.85169,12.56482 -12.46503,12.56482 -2.63259,0 -4.48449,-0.84957 -7.08432,-3.25 z m 14.79935,-2.76329 c 4.45396,-4.88844 2.86557,-12.45356 -3.13679,-14.93982 -10.99492,-4.55424 -18.83594,10.78744 -8.73256,17.08607 4.07505,2.54046 8.29432,1.77752 11.86935,-2.14625 z M 281.52147,213.30948 c -7.6707,-3.8681 -9.11654,-12.74944 -3.06131,-18.80467 7.77538,-7.77539 20.09925,-2.32929 20.09925,8.88216 0,4.37995 -3.47019,9.60829 -7.04862,10.61977 -1.07843,0.30482 -2.76324,0.77891 -3.74402,1.05353 -0.98079,0.27461 -3.79117,-0.51324 -6.2453,-1.75079 z m 11.54401,-3.00164 c 1.72879,-1.48705 2.80193,-3.62583 3.16045,-6.29886 0.45469,-3.38992 0.10536,-4.56724 -2.15072,-7.24844 -2.2885,-2.71972 -3.36382,-3.20114 -7.15015,-3.20114 -6.17249,0 -9.36565,3.19316 -9.36565,9.36565 0,3.7488 0.48862,4.86771 3.07673,7.04546 3.91216,3.29187 8.83903,3.42558 12.42934,0.33733 z m 319.82684,4.12953 c -10.22519,-2.88048 -11.24456,-17.84482 -1.52963,-22.45486 7.03789,-3.3397 15.83225,1.43807 16.8683,9.16414 1.20996,9.02289 -6.56721,15.76168 -15.33867,13.29072 z m 8.07185,-3.01653 c 3.84191,-1.75049 5.99798,-7.1111 4.5837,-11.39642 -1.43581,-4.35052 -4.4043,-6.46502 -9.07611,-6.46502 -7.45577,0 -11.87986,7.29457 -8.44849,13.93011 2.42345,4.68644 7.73929,6.30134 12.9409,3.93133 z m -429.43043,-7.73331 c -5.2221,-5.22204 -5.1786,-12.64215 0.1038,-17.70297 2.5287,-2.42266 3.8975,-2.92516 7.9683,-2.92516 4.2178,0 5.3789,0.46378 8.1843,3.26923 2.9087,2.90871 3.2693,3.88267 3.2693,8.83203 0,5.01916 -0.3192,5.84797 -3.2658,8.48077 -2.6966,2.40942 -4.1479,2.91797 -8.3269,2.91797 -4.24,0 -5.5271,-0.46596 -7.933,-2.87187 z m 12.9345,-0.58097 c 8.7419,-4.52064 4.9639,-17.54716 -5.0891,-17.54716 -7.1411,0 -11.4256,6.81364 -8.3543,13.28588 2.5677,5.41112 7.9318,7.11142 13.4434,4.26128 z m 491.2542,0.60513 c -5.31916,-4.96884 -5.45251,-12.58464 -0.30668,-17.51467 7.90891,-7.57721 20.14365,-1.88813 20.14365,9.36667 0,3.43826 -0.6138,4.80951 -3.4,7.59571 -2.95896,2.95896 -4.04785,3.4 -8.39424,3.4 -4.10948,0 -5.53431,-0.5045 -8.04273,-2.84771 z m 12.74578,-0.60513 c 8.43604,-4.36245 5.15953,-17.54716 -4.36062,-17.54716 -5.0804,0 -8.06143,1.99507 -9.50168,6.35906 -1.36855,4.14675 -0.22427,7.56935 3.51367,10.50962 3.16752,2.49157 6.42899,2.7054 10.34863,0.67848 z M 447.59404,187.22888 c -5.0587,-1.70719 -8.3405,-6.98951 -7.7412,-12.46006 1.17703,-10.74408 13.56274,-14.69301 20.67555,-6.59197 8.10464,9.23068 -1.24192,22.99796 -12.93435,19.05203 z m 8.87418,-3.12232 c 8.45768,-4.37364 4.99717,-17.54716 -4.60941,-17.54716 -4.75213,0 -7.21978,1.56519 -8.93331,5.66625 -3.64719,8.72896 4.98813,16.30466 13.54272,11.88091 z m -166.40881,-3.94967 c -4.46199,-1.96957 -6.68487,-5.00867 -7.17307,-9.80691 -0.86664,-8.51783 6.87123,-15.24621 14.8013,-12.87031 11.22665,3.36359 12.03386,18.18927 1.23599,22.70091 -4.00988,1.67543 -5.02103,1.67273 -8.86422,-0.0237 z m 11.19424,-4.01091 c 2.32979,-2.004 2.80576,-3.20617 2.80576,-7.08658 0,-3.88041 -0.47597,-5.08258 -2.80576,-7.08658 -7.71869,-6.63934 -19.51096,1.3722 -15.6697,10.64582 2.60018,6.2774 10.42484,8.03878 15.6697,3.52734 z m 302.80576,4.01091 c -5.16719,-2.28086 -7,-5.19291 -7,-11.12191 0,-4.23158 0.48842,-5.83435 2.39705,-7.86599 3.43943,-3.66111 8.24932,-5.04642 12.57022,-3.62039 10.95328,3.61491 11.53087,18.18884 0.89695,22.63198 -4.00988,1.67543 -5.02103,1.67273 -8.86422,-0.0237 z m 10.13968,-3.05766 c 7.66796,-5.37085 3.7552,-17.53983 -5.63968,-17.53983 -6.99402,0 -11.60553,6.7097 -8.97546,13.05924 1.64813,3.97895 4.61209,5.94076 8.97546,5.94076 1.95524,0 4.4931,-0.65708 5.63968,-1.46017 z m -398.44985,1.43454 c -4.5741,-2.78877 -6.7435,-8.18292 -5.2696,-13.1026 3.5382,-11.80918 19.6214,-11.80918 23.1595,0 1.474,4.91968 -0.6954,10.31383 -5.2696,13.1026 -4.2058,2.56422 -8.4145,2.56422 -12.6203,0 z m 9.149,-0.91311 c 6.7309,-2.55906 8.8471,-10.40845 4.2477,-15.7555 -2.004,-2.32979 -3.2061,-2.80576 -7.0865,-2.80576 -3.8804,0 -5.0826,0.47597 -7.0866,2.80576 -4.2215,4.90781 -2.7477,12.32511 3.0866,15.53356 2.4904,1.36959 3.7157,1.40936 6.8388,0.22194 z m 450.55444,1.49832 c -3.92403,-2.21785 -5.89327,-5.93508 -5.89327,-11.1244 0,-3.93805 0.51136,-5.14654 3.4,-8.03518 2.87365,-2.87365 4.10674,-3.4 7.9652,-3.4 8.36999,0 14.21581,7.67946 11.68447,15.34949 -0.60924,1.84602 -2.19163,4.3747 -3.51643,5.61928 -3.02818,2.84483 -9.98558,3.65626 -13.63997,1.59081 z m 10.12675,-2.06993 c 5.89745,-3.04969 6.9101,-10.71338 2.0569,-15.56657 -8.22402,-8.22403 -21.1346,3.3774 -13.9388,12.52538 3.52998,4.48764 7.24567,5.43868 11.8819,3.04119 z M 244.00804,159.00794 c -11.3446,-5.59888 -6.8134,-22.44854 6.03689,-22.44854 12.15624,0 15.92266,17.25671 4.90729,22.48384 -4.00313,1.89961 -7.04344,1.88981 -10.94418,-0.0353 z m 12.33239,-3.87193 c 1.25457,-1.20126 2.54901,-3.83548 2.87654,-5.85382 0.52671,-3.24577 0.1881,-4.07713 -2.93102,-7.19625 -4.50604,-4.50604 -8.38758,-4.69471 -12.93801,-0.62888 -2.6456,2.36382 -3.2431,3.64307 -3.2431,6.94363 0,8.80154 9.82216,12.87625 16.23559,6.73532 z m 392.63742,4.45454 c -3.66052,-1.48084 -7.41844,-6.87956 -7.41844,-10.65754 0,-7.93444 5.77033,-12.99775 13.78342,-12.09455 5.962,0.672 9.26924,4.00854 9.94872,10.03688 1.07829,9.5665 -7.52377,16.27111 -16.3137,12.71521 z m 11.83156,-5.14333 c 3.88651,-4.12588 3.67646,-8.16136 -0.65,-12.48782 -2.36719,-2.36719 -4.31837,-3.4 -6.42327,-3.4 -3.83041,0 -8.82168,4.10699 -9.66664,7.95404 -1.33774,6.0907 5.33103,12.69925 11.48991,11.38616 1.375,-0.29315 3.7375,-1.84672 5.25,-3.45238 z m -215.06024,-2.24068 c -6.00779,-3.33381 -7.88842,-11.54435 -3.95808,-17.28031 2.60157,-3.79673 5.59235,-5.38088 10.06537,-5.33139 8.93202,0.0988 14.42388,9.80218 10.18602,17.99729 -2.73873,5.29614 -10.89972,7.6074 -16.29331,4.61441 z m 12.41024,-4.04714 c 4.37392,-4.37392 4.52809,-8.30589 0.50234,-12.8115 -2.37625,-2.65947 -3.63586,-3.24305 -7,-3.24305 -9.09103,0 -13.09449,10.49837 -6.31384,16.55689 4.50561,4.02575 8.43758,3.87158 12.8115,-0.50234 z m -154.15134,1.84854 c -7.84963,-3.874 -8.5507,-15.76153 -1.23187,-20.88784 2.83289,-1.98422 9.02264,-2.00537 12.81594,-0.0438 8.19275,4.23663 7.76169,16.82634 -0.7145,20.86836 -4.18164,1.99408 -6.92491,2.01005 -10.86957,0.0633 z m 11.8041,-3.43272 c 6.8069,-5.35431 2.52167,-17.01582 -6.25276,-17.01582 -6.02283,0 -10.81671,6.00508 -9.51718,11.92177 1.41796,6.45595 10.36457,9.34591 15.76994,5.09405 z m 271.65969,2.70416 c -1.86082,-1.254 -3.94573,-3.3915 -4.63314,-4.75 -6.04962,-11.95563 9.80175,-23.08892 19.32069,-13.56998 2.7862,2.7862 3.4,4.15745 3.4,7.59571 0,5.24548 -2.45794,9.51918 -6.60719,11.48813 -4.43371,2.10393 -7.53061,1.89788 -11.48036,-0.76386 z m 13.49866,-3.79671 c 4.08799,-4.85829 2.88442,-11.68484 -2.55614,-14.49827 -4.02352,-2.08064 -7.3125,-1.75234 -10.65957,1.06404 -3.54339,2.98156 -4.48598,6.87975 -2.69817,11.15858 1.66105,3.97544 3.91357,5.2836 9.16388,5.32197 3.43844,0.0251 4.61072,-0.50393 6.75,-3.04632 z m -325.0782,2.9055 c -9.90004,-2.63509 -11.48623,-17.5954 -2.36564,-22.31184 6.18473,-3.19825 13.92516,-0.41197 16.59291,5.97285 1.83896,4.40126 1.8103,5.92724 -0.19053,10.14367 -2.41441,5.08799 -8.3517,7.7085 -14.03674,6.19532 z m 9.47576,-4.32123 c 3.42243,-2.87979 4.39001,-7.12975 2.59509,-11.39861 -2.59092,-6.16197 -11.01663,-7.34501 -15.61981,-2.19315 -4.44955,4.97991 -3.55351,11.51642 1.99119,14.52542 4.0235,2.18347 7.69862,1.87249 11.03353,-0.93366 z m 330.75711,1.41607 c -2.11385,-1.85599 -3.74657,-4.3704 -4.11576,-6.33834 -1.31678,-7.01904 4.97852,-14.57289 12.1521,-14.58153 4.55022,-0.005 9.6629,3.8564 11.17356,8.43999 3.84087,11.65383 -9.94803,20.61191 -19.2099,12.47988 z m 15.18266,-2.41754 c 7.87639,-9.15685 -5.56597,-21.41581 -14.11208,-12.86971 -3.84156,3.84157 -3.67025,9.4836 0.41191,13.56576 2.70216,2.70215 3.52518,2.9843 7.24844,2.48491 2.82695,-0.37917 4.9363,-1.41917 6.45173,-3.18096 z M 324.97972,123.67393 c -6.62151,-4.03779 -7.09301,-13.21083 -0.96966,-18.86453 8.2695,-7.635234 20.79496,-0.57479 19.26185,10.85768 -1.15927,8.64478 -10.52398,12.7439 -18.29219,8.00685 z m 11.4885,-1.56737 c 8.43604,-4.36245 5.15953,-17.54716 -4.36062,-17.54716 -5.0804,0 -8.06143,1.99507 -9.50168,6.35906 -1.36855,4.14675 -0.22427,7.56935 3.51367,10.50962 3.16752,2.49157 6.42899,2.7054 10.34863,0.67848 z m 227.93539,1.19787 c -5.08687,-4.3001 -6.30809,-10.45828 -3.13814,-15.82458 1.83358,-3.10399 6.73057,-5.92044 10.29394,-5.92044 10.67811,0 16.0246,14.12047 8.04597,21.24999 -4.0652,3.63257 -11.21475,3.86539 -15.20177,0.49503 z m 12.12217,-1.22764 c 3.25241,-1.68189 5.56381,-7.21541 4.49107,-10.75169 -1.29082,-4.25518 -4.51816,-6.7657 -8.6975,-6.7657 -4.97235,0 -7.34721,1.3012 -9.31301,5.10263 -2.0826,4.0273 -1.09706,8.17253 2.70331,11.37034 3.41668,2.87494 6.66899,3.18899 10.81613,1.04442 z m -129.46637,-3.47142 c -3.35845,-1.38914 -6.54777,-5.56551 -7.16776,-9.38606 -1.23162,-7.58958 4.03422,-13.659904 11.84962,-13.659904 4.99433,0 8.17227,1.850354 10.32385,6.011044 5.21791,10.09032 -4.66657,21.31147 -15.00571,17.03492 z m 10.49176,-3.98015 c 7.38585,-5.24457 2.97665,-17.065814 -6.36537,-17.065814 -3.12592,0 -8.213,4.216794 -9.03418,7.488624 -0.97602,3.88879 1.81705,9.35359 5.62036,10.99655 3.64445,1.57433 6.05617,1.22429 9.77919,-1.41936 z m -102.5431,-9.61728 c -8.23034,-4.06189 -8.52268,-16.773296 -0.48139,-20.931607 8.39194,-4.339643 18.08199,1.151072 17.99729,10.19789 -0.0886,9.461137 -9.0131,14.930077 -17.5159,10.733717 z m 12.80134,-4.46183 c 4.3295,-4.75184 3.27664,-11.062966 -2.40556,-14.419526 -8.44032,-4.985818 -18.06188,4.890133 -12.87693,13.217384 3.74465,6.014062 10.41983,6.539142 15.28249,1.202142 z m 167.17361,2.76269 c -10.4442,-9.571388 -0.38095,-24.865867 13.01083,-19.77432 5.38112,2.045897 8.26001,11.34369 5.2127,16.83517 -1.93001,3.47801 -6.69091,6.17577 -10.91183,6.18316 -2.85883,0.005 -4.61816,-0.77556 -7.3117,-3.24401 z m 14.82639,-2.76269 c 3.9172,-4.299315 3.67518,-8.26152 -0.77654,-12.71324 -3.11912,-3.119127 -3.95048,-3.457739 -7.19625,-2.931024 -5.24083,0.850471 -8.73176,4.67959 -8.73176,9.577686 0,9.258608 10.36615,13.023278 16.70455,6.066578 z M 385.58943,94.280095 c -3.3687,-1.704582 -7.03002,-7.390926 -7.03002,-10.918232 0,-6.948943 5.16702,-11.802457 12.56482,-11.802457 3.93805,0 5.14654,0.51136 8.03518,3.4 2.77421,2.774208 3.4,4.163772 3.4,7.54966 0,5.534301 -2.16818,9.427733 -6.35708,11.415495 -4.10354,1.947258 -7.25838,2.052946 -10.6129,0.355534 z m 12.21998,-4.832867 c 7.74039,-8.217133 -3.62037,-20.890534 -12.47978,-13.921716 -6.11887,4.813105 -5.35076,13.601681 1.44235,16.503034 4.26826,1.822987 7.62903,1.037006 11.03743,-2.581318 z m 109.12203,4.523608 c -10.87813,-5.366198 -6.93925,-22.41143 5.17893,-22.41143 13.3406,0 17.27676,16.38365 5.4104,22.51998 -3.6254,1.874767 -6.63129,1.843954 -10.58933,-0.10855 z m 9.09367,-1.832652 c 3.12029,-1.30374 6.5343,-5.811652 6.5343,-8.627989 0,-2.608 -3.26526,-7.750619 -5.59524,-8.812232 -7.56603,-3.447311 -15.68071,2.77558 -13.94204,10.691702 0.83084,3.782775 4.57624,7.040663 9.3194,8.106355 0.15516,0.03486 1.81278,-0.576164 3.68358,-1.357836 z M 418.81557,89.511069 C 407.29461,87.037194 406.483,71.147405 417.64152,66.525394 c 4.38645,-1.816928 9.29326,-0.441428 12.8415,3.599791 7.80875,8.893674 -0.0123,21.888579 -11.66745,19.385884 z m 7.79923,-2.981307 c 1.05815,-0.566305 2.64339,-2.420972 3.52276,-4.121482 3.38956,-6.554676 -1.08239,-13.848874 -8.4905,-13.848874 -4.67181,0 -7.6403,2.114495 -9.07611,6.465025 -2.67178,8.095588 6.45066,15.569085 14.04385,11.505331 z m 48.1614,1.46894 c -5.55828,-3.893174 -6.6951,-13.172353 -2.19999,-17.957183 5.42286,-5.772364 12.84137,-5.685556 18.01848,0.210845 2.89272,3.294627 3.14329,4.096836 2.70486,8.659628 -0.66599,6.93108 -4.69157,10.647414 -11.53341,10.647414 -2.69649,0 -5.72813,-0.676902 -6.98994,-1.560704 z m 13.09674,-2.854065 c 3.31834,-3.075331 4.25151,-6.806883 2.66193,-10.644469 -1.62491,-3.922891 -4.60164,-5.940762 -8.76371,-5.940762 -4.66509,0 -7.14075,1.585834 -8.84566,5.666246 -3.92792,9.400835 7.54357,17.780664 14.94744,10.918985 z"
     id="path825"
     inkscape:connector-curvature="0" />
</svg>
